<?xml version="1.0" encoding="UTF-8"?>
<!DOCTYPE svg PUBLIC "-//W3C//DTD SVG 1.1//EN" "http://www.w3.org/Graphics/SVG/1.1/DTD/svg11.dtd">
<!-- Creator: CorelDRAW 2020 (64-Bit) -->
<svg xmlns="http://www.w3.org/2000/svg" xml:space="preserve" width="210mm" height="297mm" version="1.1" style="shape-rendering:geometricPrecision; text-rendering:geometricPrecision; image-rendering:optimizeQuality; fill-rule:evenodd; clip-rule:evenodd"
viewBox="0 0 21000 29700"
 xmlns:xlink="http://www.w3.org/1999/xlink"
 xmlns:xodm="http://www.corel.com/coreldraw/odm/2003">
 <defs>
  <style type="text/css">
   <![CDATA[
    .fil0 {fill:#E6E6E6}
   ]]>
  </style>
 </defs>
 <g id="Layer_x0020_1">
  <metadata id="CorelCorpID_0Corel-Layer"/>
  <path class="fil0" d="M5224.11 8618.03l13162.52 0c330,0 599.99,269.99 599.99,599.99l0 8325.02c0,330 -269.99,599.99 -599.99,599.99l-11313.23 0 -2274.28 3915 -137.5 -236.7 0 -4070.08c-24.23,-64.94 -37.5,-135.1 -37.5,-208.21l0 -8325.02c0,-330 269.99,-599.99 599.99,-599.99zm1762.51 4575l7650 0 0 2025 -7650 0 0 -2025zm0 -2662.5l9525 0 0 2025 -9525 0 0 -2025z"/>
 </g>
</svg>
